<?xml version="1.0" encoding="UTF-8"?>
<!-- Generator: Adobe Illustrator 25.2.3, SVG Export Plug-In . SVG Version: 6.00 Build 0)  -->
<svg xmlns="http://www.w3.org/2000/svg" xmlns:xlink="http://www.w3.org/1999/xlink" version="1.1" id="Layer_1" x="0px" y="0px" viewBox="0 0 272.7 21.4" style="enable-background:new 0 0 272.7 21.4;" xml:space="preserve">
<style type="text/css">
	.st0{fill:#FFFFFF;}
</style>
<g>
	<path class="st0" d="M69.5,17.4L69.5,17.4L62.2,1.5h2.2l2.1,4.9c1.1,2.5,2,4.3,2.8,6.6c0.9-2.2,1.8-4.1,2.8-6.6l2.1-4.9h2.2   L69.5,17.4z"></path>
	<rect x="79.5" y="1.5" class="st0" width="2.1" height="15.6"></rect>
	<path class="st0" d="M91.6,1.5c3.4,0,5.5,1.8,5.5,4.8c0,2.3-1.5,3.9-3.2,4.4l3.5,6.5h-2.3L91.9,11h-3.3v6.1h-2.1V1.5H91.6z    M88.6,3.3v6h3.1c2.1,0,3.3-1.1,3.3-3c0-1.9-1.3-3-3.5-3H88.6z"></path>
	<path class="st0" d="M108.2,17.4c-4.7,0-8.2-3.4-8.2-8.1c0-4.6,3.5-8.1,8.3-8.1c2.4,0,4.1,0.8,4.6,1.1v2c-1-0.5-2.6-1.2-4.7-1.2   c-3.7,0-6.2,2.6-6.2,6.1c0,3.6,2.6,6.2,6.1,6.2c1.1,0,2.4-0.2,3.1-0.6v-4.7h2v6C112.1,16.9,110.1,17.4,108.2,17.4z"></path>
	<rect x="117.4" y="1.5" class="st0" width="2.1" height="15.6"></rect>
	<polygon class="st0" points="136.7,17.4 127,6.9 126.5,6.3 126.5,17.1 124.4,17.1 124.4,1.3 124.5,1.3 134.2,11.8 134.7,12.3    134.7,1.5 136.7,1.5 136.7,17.4  "></polygon>
	<rect x="141.7" y="1.5" class="st0" width="2.1" height="15.6"></rect>
	<path class="st0" d="M153.9,1.3L153.9,1.3l7.2,15.9h-2.2l-1.5-3.5h-7l-1.5,3.5h-2.2L153.9,1.3z M156.6,12c-1.1-2.4-1.9-4.3-2.7-6.5   c-0.9,2.2-1.7,4.1-2.7,6.5H156.6z"></path>
	<polygon class="st0" points="172.5,9.9 172.5,17.1 168.2,17.1 168.2,1.3 168.3,1.3 176.1,7.7 183.9,1.3 184,1.3 184,17.1    179.7,17.1 179.7,9.9 176.1,12.8  "></polygon>
	<polygon class="st0" points="186.7,1.5 197.1,1.5 197.1,5.3 191.2,5.3 191.2,7.4 196.3,7.4 196.3,11 191.2,11 191.2,13.3    197.5,13.3 197.5,17.1 186.7,17.1  "></polygon>
	<path class="st0" d="M207.4,17.1l-2.3-4.9h-1.3v4.9h-4.4V1.5h5.9c3.8,0,6.6,1.8,6.6,5.5c0,2.2-1,3.7-2.8,4.5l3,5.6H207.4z    M203.8,5.3v3.3h1.7c0.9,0,1.7-0.4,1.7-1.7c0-1.2-0.8-1.7-1.7-1.7H203.8z"></path>
	<path class="st0" d="M221.4,1.2c2,0,3.4,0.5,4.4,1v4.1c-0.8-0.4-2.2-1-4-1c-2.8,0-4.2,1.9-4.2,4c0,2.1,1.4,4,4,4c2,0,3.4-0.5,4.3-1   v4.2c-1.1,0.6-2.9,1-4.8,1c-4.7,0-8.1-3.6-8.1-8.1C213.1,4.9,216.5,1.2,221.4,1.2z"></path>
	<path class="st0" d="M227.9,1.5h4.5v9.2c0,1.6,0.8,2.6,2.5,2.6c1.7,0,2.5-0.9,2.5-2.6V1.5h4.6v9.7c0,3.7-2.6,6.2-7,6.2   c-4.4,0-7-2.5-7-6.2V1.5z"></path>
	<path class="st0" d="M252.5,17.1l-2.3-4.9h-1.3v4.9h-4.4V1.5h5.9c3.8,0,6.6,1.8,6.6,5.5c0,2.2-1,3.7-2.8,4.5l3,5.6H252.5z    M248.9,5.3v3.3h1.7c0.9,0,1.7-0.4,1.7-1.7c0-1.2-0.8-1.7-1.7-1.7H248.9z"></path>
	<polygon class="st0" points="262.5,17.1 262.5,11.2 256.8,1.5 261.9,1.5 264.7,6.9 267.6,1.5 272.7,1.5 267,11.2 267,17.1  "></polygon>
	<path class="st0" d="M59.6,11.4L59.5,11l-2.8,0.6c-0.3-0.9-1.2-2.9-2.9-5c-1.1-1.4-2.5-2.7-4.3-3.8c-1.8-1-3.9-1.7-6.5-1.7   c-0.1,0-0.1,0-0.2,0c-0.4-0.2-0.8-0.4-1.1-0.6C40.6,0,39.5,0,39.1,0l0,0c-0.1,0-0.1,0-0.1,0l-8.5,0v0l-0.1,0l-2.5,0l-0.6,0L8.9,0.2   l0.3,0.5c0.3,0.6,0.8,0.9,1.3,1.2c0.6,0.3,1.2,0.5,1.9,0.6c0.6,0.1,1.2,0.2,1.7,0.2c0.2,0.4,0.6,0.7,1,0.9c0.4,0.3,0.9,0.4,1.4,0.5   c1,0.2,1.9,0.3,2.4,0.3h0c0.1,0,0.1,0,0.2,0c0.3,0.3,0.6,0.5,1,0.7L0,5.3L0.4,6c0.4,0.8,1.1,1.3,1.8,1.7C3,8,3.9,8.3,4.8,8.4   c0.8,0.1,1.6,0.2,2.3,0.3C7.4,9.3,7.9,9.7,8.4,10c0.6,0.3,1.3,0.6,1.9,0.7c1.3,0.3,2.6,0.4,3.3,0.4h0c0.1,0,0.2,0,0.3,0   c1,1,2.1,1.5,3.1,1.7c1,0.3,1.9,0.3,2.3,0.3h0c0.1,0,0.2,0,0.2,0l1.2,0c0.6,1.1,1.5,1.8,2.3,2.1c0.7,0.3,1.4,0.4,1.9,0.4v0h0   c0.1,0,0.2,0,0.3,0c0.1,0,0.2,0,0.2,0l0,0l2.1,0c-0.1,0.8-0.1,1.6-0.1,2.1c0,0.2,0,0.4,0,0.6L24,19.2l0.6,0.6   c0.1,0.1,0.3,0.2,0.7,0.4c0.4,0.1,1.1,0.2,2.3,0.2c1.8,0,4.7-0.3,9.4-1.1c1.3,1.3,3,2.1,4.9,2.1h0c1.8,0,3.4-0.7,4.6-1.8   c0.9-0.2,1.7-0.8,2.4-1.7c0.3-0.4,0.6-0.9,0.8-1.5c3.6-1,5.9-1.8,7.3-2.5c1.1-0.5,1.7-0.9,2-1.3c0.2-0.2,0.3-0.3,0.4-0.5   c0.1-0.2,0.1-0.3,0.1-0.4C59.7,11.5,59.7,11.5,59.6,11.4z M13.5,1.9c-0.9-0.1-1.9-0.3-2.7-0.7c-0.2-0.1-0.4-0.2-0.5-0.3l19.5-0.1   l9.2,0l0,0l0,0l0,0l0.1,0h0c0.3,0,1.3,0,2.4,0.4c-0.7,0.1-1.3,0.2-2,0.3c-0.5,0.1-0.9,0.2-1.3,0.4L27.2,2L15.8,2l0,0l0,0   c0,0-0.1,0-0.2,0h0C15.1,2,14.3,2,13.5,1.9z M36.1,2.7c-0.9,0.4-1.7,0.9-2.4,1.4c-0.1-0.4-0.3-0.9-0.3-1.4L36.1,2.7z M33.1,4.6   c0,0-0.1,0.1-0.1,0.1c-0.2,0.1-0.3,0.3-0.5,0.4l-0.6,0c-0.2-0.7-0.4-1.5-0.4-2.4l1.1,0C32.7,3.4,32.8,4.1,33.1,4.6z M29.1,5.1l-4,0   l-0.2,0l-2.6,0c-0.2,0-0.5-0.1-0.7-0.2c-0.4-0.1-0.9-0.3-1.3-0.6l10.1-0.1v0l0.5,0C31,4.6,31,4.9,31.1,5.1l-1.8,0v0L29.1,5.1z    M19.3,3.7L19.3,3.7L19.3,3.7L19.3,3.7c-0.1,0-0.2,0-0.3,0h0c-0.4,0-1,0-1.6-0.1c-0.7-0.1-1.4-0.3-1.9-0.6   c-0.1-0.1-0.2-0.1-0.3-0.2c0.2,0,0.3,0,0.4,0l0,0c0.1,0,0.2,0,0.2,0v0l14.6-0.1l0.3,0c0,0.3,0,0.6,0.1,0.9l-3.6,0L19.3,3.7z    M14.1,10L14.1,10L14,10c-0.1,0-0.2,0-0.3,0h0c-0.5,0-1.3,0-2.2-0.2c-0.9-0.1-1.8-0.4-2.6-0.8C8.8,9,8.6,8.9,8.5,8.8   c0.2,0,0.4,0,0.6,0h0.1c0.2,0,0.3,0,0.3,0l19.9-0.1l0.4,0c-0.2,0.4-0.4,0.8-0.6,1.3l-1.8,0L14.1,10L14.1,10z M19.6,12.1L19.6,12.1   L19.6,12.1L19.6,12.1L19.6,12.1L19.6,12.1l-0.2,0h0c-0.3,0-1.1,0-2-0.3c-0.6-0.2-1.2-0.4-1.8-0.8L25,11v0l3.7,0   c-0.1,0.3-0.2,0.6-0.3,0.9c0,0.1,0,0.1-0.1,0.2l-3.4,0L19.6,12.1z M25.5,14.6L25.5,14.6L25.5,14.6L25.5,14.6l-0.5,0   c-0.4,0-0.9-0.1-1.5-0.3c-0.5-0.2-1.1-0.6-1.5-1.2l6.1,0c-0.1,0.5-0.2,1.1-0.3,1.6L25.5,14.6z M27.6,19.4l1-0.2l0-0.4l0,0   c0-0.1,0-0.4,0-0.9c0-1.4,0.2-4.3,1.4-7.2L30,11c0.1,0.4,0.2,0.7,0.3,1.1l0.4,1c0.1,0.1,0.1,0.3,0.2,0.4c0.2,0.4,0.4,0.8,0.6,1.2   l0.8,1c0.3,0.3,0.6,0.7,0.9,0.9c1.3,1.2,2.7,1.7,3.2,1.8c0,0,0,0,0,0C32,19.2,29.3,19.4,27.6,19.4z M33.9,13   c0.4,0.6,0.9,0.9,1.2,1.1c0,0.1,0,0.2,0,0.3h0l0,0.1l0,0l0,0l0,0.2h0c0,0.8,0.2,1.6,0.5,2.3c-0.2-0.1-0.4-0.2-0.6-0.4   c-1-0.7-2.3-1.8-3.1-3.6c-0.5-1.1-0.9-2.4-0.9-4.1c0-0.1,0.1-0.1,0.1-0.2l1.4,0C32.5,10.8,33.2,12.2,33.9,13z M33.3,8.7l5,0   c-1.5,1-2.7,2.5-3.1,4.3c-0.2-0.1-0.3-0.3-0.5-0.6C34.2,11.7,33.6,10.5,33.3,8.7z M47.8,14.5c0,0.7-0.1,1.4-0.3,2   c-0.3,0.8-0.8,1.6-1.4,2.2c-1.1,1.1-2.5,1.7-4.1,1.7h0c-1.6,0-3.1-0.6-4.1-1.7c0,0,0,0,0,0c-1-1-1.7-2.4-1.7-3.9h0l0-0.2l0,0   c0-1.6,0.6-3.1,1.7-4.1c1.1-1.1,2.5-1.7,4.1-1.7h0h0c1.6,0,3.1,0.6,4.1,1.7C47.2,11.4,47.8,12.8,47.8,14.5L47.8,14.5z M49.2,14   c0,0.6-0.1,1.1-0.2,1.6c-0.1,0.2-0.1,0.4-0.2,0.6c-0.1,0-0.1,0-0.2,0.1c0.1-0.5,0.2-1.1,0.2-1.7v0c0-3.7-2.9-6.7-6.6-6.9l0,0   L30.9,7.7l-0.6,0l-1.5,0l-2.4,0L9.4,7.8l0,0l-0.1,0c0,0-0.1,0-0.2,0H9c-0.5,0-1.6,0-2.8-0.2C5,7.5,3.6,7.2,2.6,6.7   C2.4,6.6,2.1,6.4,1.9,6.3l22.4-0.1l0.9,0l4.1,0v0l2.2,0l0,0l0.7,0l0.1,0l1.7,0l6.9,0l0,0l0,0l0,0l0.1,0l0,0c0.5,0,1.9,0.1,3.3,0.6   c0.1,0,0.2,0.1,0.3,0.1c0.1,0,0.2,0.1,0.3,0.1c0.2,0.1,0.5,0.2,0.7,0.4c1.1,0.7,2.1,1.7,2.7,3.2C49,11.8,49.2,13,49.2,14L49.2,14   L49.2,14z M54.1,14c-1.1,0.4-2.4,0.8-4,1.3c0.1-0.4,0.1-0.8,0.1-1.2v0c0-1.1-0.3-2.4-0.9-3.8c-0.9-2-2.2-3.2-3.6-4   c-0.3-0.1-0.5-0.3-0.8-0.4c-0.1,0-0.1-0.1-0.2-0.1c-0.1,0-0.1,0-0.2-0.1C43,5.1,41.6,5,41.1,5l0,0c-0.1,0-0.1,0-0.2,0l-5.9,0   l-0.8,0l-0.1,0c0,0,0,0,0,0c0.4-0.3,0.9-0.6,1.4-0.9c1.2-0.7,2.5-1.2,4.1-1.6c0.6-0.1,1.3-0.3,1.9-0.3C42,2.2,42.5,2.1,43,2.1   c0,0,0,0,0,0c0.4,0,0.7,0,1.1,0.1c1.9,0.2,3.5,0.7,4.9,1.5c2.5,1.4,4.2,3.6,5.3,5.4c0.5,0.9,0.9,1.7,1.2,2.3   c0.1,0.3,0.2,0.5,0.3,0.7c0,0.1,0.1,0.1,0.1,0.2l0,0l0,0l0.1,0.5l1.5-0.3C56.8,12.9,55.8,13.4,54.1,14z"></path>
</g>
</svg>
